<svg width="48" height="48" viewBox="0 0 48 48" fill="none" xmlns="http://www.w3.org/2000/svg">
<rect x="0.5" y="0.5" width="47" height="47" rx="23.5" fill="white"/>
<path d="M30.9788 24.6827C30.968 22.7162 31.8636 21.232 33.6765 20.139C32.6621 18.6976 31.1299 17.9046 29.1067 17.7493C27.1914 17.5992 25.098 18.8584 24.3319 18.8584C23.5226 18.8584 21.6666 17.8028 20.2099 17.8028C17.1994 17.8511 14 20.1872 14 24.9399C14 26.3437 14.259 27.7957 14.7769 29.2906C15.4675 31.2571 17.9601 36.0794 20.5606 35.999C21.9202 35.9669 22.8806 35.0399 24.6502 35.0399C26.3659 35.0399 27.2561 35.999 28.7722 35.999C31.3943 35.9615 33.6495 31.5786 34.3077 29.6068C30.79 27.9618 30.9788 24.7845 30.9788 24.6827ZM27.9251 15.8846C29.398 14.1486 29.2631 12.568 29.22 12C27.9197 12.075 26.4145 12.8787 25.5566 13.87C24.6124 14.9309 24.0567 16.2436 24.1754 17.7225C25.5836 17.8296 26.8677 17.1116 27.9251 15.8846Z" fill="black"/>
<rect x="0.5" y="0.5" width="47" height="47" rx="23.5" stroke="#EEEEEE"/>
</svg>
