<svg xmlns="http://www.w3.org/2000/svg" width="19" height="18" viewBox="0 0 19 18" fill="none">
  <mask id="mask0_4156_1294" style="mask-type:luminance" maskUnits="userSpaceOnUse" x="0" y="0" width="19" height="18">
    <path d="M18.5 0H0.5V18H18.5V0Z" fill="white"/>
    <path d="M14.8027 15.4922C14.8027 15.9776 14.4092 16.3711 13.9238 16.3711C13.4384 16.3711 13.0449 15.9776 13.0449 15.4922C13.0449 15.0068 13.4384 14.6133 13.9238 14.6133C14.4092 14.6133 14.8027 15.0068 14.8027 15.4922Z" fill="white"/>
    <path d="M9.5293 15.4922C9.5293 15.9776 9.13579 16.3711 8.65039 16.3711C8.16495 16.3711 7.77148 15.9776 7.77148 15.4922C7.77148 15.0068 8.16495 14.6133 8.65039 14.6133C9.13579 14.6133 9.5293 15.0068 9.5293 15.4922Z" fill="white"/>
  </mask>
  <g mask="url(#mask0_4156_1294)">
    <path fill-rule="evenodd" clip-rule="evenodd" d="M5.91619 12.9816C5.97497 13.237 6.2023 13.418 6.46436 13.418H16.11C16.3721 13.418 16.5994 13.237 16.6582 12.9816L18.3451 5.65201C18.3835 5.48501 18.3438 5.30961 18.237 5.17553C18.1303 5.04146 17.9683 4.96335 17.7969 4.96335H4.77735C4.60599 4.96335 4.44397 5.04146 4.33725 5.17554C4.23053 5.30961 4.19074 5.48502 4.22918 5.65202L5.91619 12.9816ZM6.9121 12.293L5.48402 6.08835H17.0903L15.6623 12.293H6.9121Z" fill="#F5B102"/>
    <path fill-rule="evenodd" clip-rule="evenodd" d="M4.90345 6.07441C5.20619 6.00473 5.39513 5.70283 5.32545 5.40008L4.42317 1.4797C4.36439 1.22432 4.13705 1.04336 3.875 1.04336H1.20312C0.892465 1.04336 0.640625 1.2952 0.640625 1.60586C0.640625 1.91652 0.892465 2.16836 1.20312 2.16836H3.42726L4.22912 5.65241C4.29879 5.95515 4.6007 6.14409 4.90345 6.07441Z" fill="#F5B102"/>
    <path fill-rule="evenodd" clip-rule="evenodd" d="M9.18018 9.19082C9.18018 9.48077 9.41523 9.71582 9.70518 9.71582H12.8692C13.1592 9.71582 13.3942 9.48077 13.3942 9.19082C13.3942 8.90087 13.1592 8.66582 12.8692 8.66582H9.70518C9.41523 8.66582 9.18018 8.90087 9.18018 9.19082Z" fill="#F5B102"/>
    <path fill-rule="evenodd" clip-rule="evenodd" d="M9.14258 9.19043C9.14258 9.50109 9.39442 9.75293 9.70508 9.75293H12.8691C13.1798 9.75293 13.4316 9.50109 13.4316 9.19043C13.4316 8.87977 13.1798 8.62793 12.8691 8.62793H9.70508C9.39442 8.62793 9.14258 8.87977 9.14258 9.19043Z" fill="#F5B102"/>
    <path fill-rule="evenodd" clip-rule="evenodd" d="M11.2871 7.0459C10.9764 7.0459 10.7246 7.29774 10.7246 7.6084L10.7246 10.7725C10.7246 11.0831 10.9764 11.335 11.2871 11.335C11.5978 11.335 11.8496 11.0831 11.8496 10.7725L11.8496 7.6084C11.8496 7.29774 11.5978 7.0459 11.2871 7.0459Z" fill="#F5B102"/>
    <path d="M14.8027 15.4922C14.8027 15.9776 14.4092 16.3711 13.9238 16.3711C13.4384 16.3711 13.0449 15.9776 13.0449 15.4922C13.0449 15.0068 13.4384 14.6133 13.9238 14.6133C14.4092 14.6133 14.8027 15.0068 14.8027 15.4922Z" fill="#F5B102"/>
    <path d="M9.5293 15.4922C9.5293 15.9776 9.13579 16.3711 8.65039 16.3711C8.16495 16.3711 7.77148 15.9776 7.77148 15.4922C7.77148 15.0068 8.16495 14.6133 8.65039 14.6133C9.13579 14.6133 9.5293 15.0068 9.5293 15.4922Z" fill="#F5B102"/>
  </g>
</svg>