<svg width="20" height="20" viewBox="0 0 20 20" fill="none" xmlns="http://www.w3.org/2000/svg">
<path d="M10 1.6665C5.40835 1.6665 1.66669 5.40817 1.66669 9.99984C1.66669 14.5915 5.40835 18.3332 10 18.3332C14.5917 18.3332 18.3334 14.5915 18.3334 9.99984C18.3334 5.40817 14.5917 1.6665 10 1.6665ZM12.8 11.9165C13.0417 12.1582 13.0417 12.5582 12.8 12.7998C12.675 12.9248 12.5167 12.9832 12.3584 12.9832C12.2 12.9832 12.0417 12.9248 11.9167 12.7998L10 10.8832L8.08335 12.7998C7.95835 12.9248 7.80002 12.9832 7.64169 12.9832C7.48335 12.9832 7.32502 12.9248 7.20002 12.7998C6.95835 12.5582 6.95835 12.1582 7.20002 11.9165L9.11669 9.99984L7.20002 8.08317C6.95835 7.8415 6.95835 7.4415 7.20002 7.19984C7.44169 6.95817 7.84169 6.95817 8.08335 7.19984L10 9.1165L11.9167 7.19984C12.1584 6.95817 12.5584 6.95817 12.8 7.19984C13.0417 7.4415 13.0417 7.8415 12.8 8.08317L10.8834 9.99984L12.8 11.9165Z" fill="#D63120"/>
</svg>
