<svg width="48" height="48" viewBox="0 0 48 48" fill="none" xmlns="http://www.w3.org/2000/svg">
<rect x="0.5" y="0.5" width="47" height="47" rx="23.5" fill="white"/>
<path fill-rule="evenodd" clip-rule="evenodd" d="M34.6755 35.1538C35.407 35.1538 36 34.6063 36 33.9312V14.2227C36 13.5473 35.4069 13 34.6755 13H13.3246C12.5929 13 12 13.5473 12 14.2227V33.9311C12 34.6063 12.5929 35.1538 13.3246 35.1538L34.6755 35.1538ZM28.5596 35.1538V26.5747H31.6793L32.1463 23.2312H28.5595V21.0966C28.5595 20.1285 28.8507 19.4689 30.3546 19.4689L32.2726 19.4681V16.4777C31.9408 16.437 30.8022 16.346 29.4777 16.346C26.7123 16.346 24.8191 17.9041 24.8191 20.7655V23.2312H21.6914V26.5747H24.8191V35.1538L28.5596 35.1538Z" fill="#1877F2"/>
<rect x="0.5" y="0.5" width="47" height="47" rx="23.5" stroke="#EEEEEE"/>
</svg>
