<svg width="48" height="48" viewBox="0 0 48 48" fill="none" xmlns="http://www.w3.org/2000/svg">
<rect x="0.5" y="0.5" width="47" height="47" rx="23.5" fill="white"/>
<g clip-path="url(#clip0_383_86889)">
<path d="M35.4392 24.2247C35.4392 23.2414 35.3594 22.5239 35.1867 21.7798H23.9587V26.2178H30.5493C30.4165 27.3207 29.699 28.9816 28.1044 30.0977L28.0821 30.2463L31.6321 32.9965L31.8781 33.021C34.1369 30.9349 35.4392 27.8654 35.4392 24.2247Z" fill="#4285F4"/>
<path d="M23.9587 35.9173C27.1875 35.9173 29.8982 34.8543 31.8781 33.0206L28.1044 30.0973C27.0946 30.8016 25.7392 31.2932 23.9587 31.2932C20.7963 31.2932 18.1122 29.2071 17.1555 26.3237L17.0152 26.3356L13.3238 29.1925L13.2755 29.3267C15.242 33.2332 19.2815 35.9173 23.9587 35.9173Z" fill="#34A853"/>
<path d="M17.1555 26.3238C16.9031 25.5797 16.7569 24.7824 16.7569 23.9586C16.7569 23.1347 16.9031 22.3375 17.1422 21.5934L17.1355 21.4349L13.3979 18.5322L13.2756 18.5904C12.4651 20.2115 12 22.0319 12 23.9586C12 25.8853 12.4651 27.7056 13.2756 29.3267L17.1555 26.3238Z" fill="#FBBC05"/>
<path d="M23.9587 16.624C26.2043 16.624 27.719 17.594 28.5828 18.4046L31.9578 15.1093C29.885 13.1826 27.1875 12 23.9587 12C19.2815 12 15.242 14.6841 13.2755 18.5906L17.1422 21.5936C18.1122 18.7102 20.7963 16.624 23.9587 16.624Z" fill="#EB4335"/>
</g>
<rect x="0.5" y="0.5" width="47" height="47" rx="23.5" stroke="#EEEEEE"/>
<defs>
<clipPath id="clip0_383_86889">
<rect width="24" height="24" fill="white" transform="translate(12 12)"/>
</clipPath>
</defs>
</svg>
