<svg width="16" height="16" viewBox="0 0 16 16" fill="none" xmlns="http://www.w3.org/2000/svg">
<path d="M7.99998 14.6667C4.32665 14.6667 1.33331 11.6733 1.33331 8C1.33331 4.32667 4.32665 1.33334 7.99998 1.33334C11.6733 1.33334 14.6666 4.32667 14.6666 8C14.6666 11.6733 11.6733 14.6667 7.99998 14.6667ZM7.49998 10.6667C7.49998 10.94 7.72665 11.1667 7.99998 11.1667C8.27331 11.1667 8.49998 10.94 8.49998 10.6667V7.33334C8.49998 7.06 8.27331 6.83334 7.99998 6.83334C7.72665 6.83334 7.49998 7.06 7.49998 7.33334V10.6667ZM8.61331 5.08001C8.57998 4.99334 8.53331 4.92667 8.47331 4.86001C8.40665 4.8 8.33331 4.75334 8.25331 4.72001C8.17331 4.68667 8.08665 4.66667 7.99998 4.66667C7.91331 4.66667 7.82665 4.68667 7.74665 4.72001C7.66665 4.75334 7.59331 4.8 7.52665 4.86001C7.46665 4.92667 7.41998 4.99334 7.38665 5.08001C7.35331 5.16001 7.33331 5.24667 7.33331 5.33334C7.33331 5.42 7.35331 5.50667 7.38665 5.58667C7.41998 5.66667 7.46665 5.74 7.52665 5.80667C7.59331 5.86667 7.66665 5.91334 7.74665 5.94667C7.90665 6.01334 8.09331 6.01334 8.25331 5.94667C8.33331 5.91334 8.40665 5.86667 8.47331 5.80667C8.53331 5.74 8.57998 5.66667 8.61331 5.58667C8.64665 5.50667 8.66665 5.42 8.66665 5.33334C8.66665 5.24667 8.64665 5.16001 8.61331 5.08001Z"/>
</svg>
