<svg preserveAspectRatio="xMidYMid meet" data-bbox="6 34.001 188 131.999" viewBox="6 34.001 188 131.999" height="200" width="200" xmlns="http://www.w3.org/2000/svg" data-type="color" role="img" aria-label="Homepage"><defs><style>#comp-kh4rhoyd svg [data-color="1"] {fill: #4A0105;}</style></defs>
  <g>
      <path d="M151.152 75.049c-1.463-.595-2.8-.932-3.907-1.633a83.661 83.661 0 0 1-6.762-4.741c-3.344-2.614-7.023-4.514-11.067-5.76-.874-.269-2.233-.444-1.676-1.759.203-.479 1.721-.866 2.372-.612 3.522 1.378 6.96 2.97 10.448 4.497l5.436-2.194c-1.32-.776-2.556-1.528-3.815-2.24-4.348-2.46-6.669-6.088-6.022-11.155.34-2.666-.529-4.446-2.774-5.76-1.498-.877-2.974-1.812-4.358-2.856-.506-.382-.718-1.155-1.063-1.75.713-.164 1.587-.672 2.108-.427 1.503.706 3.069 1.506 4.241 2.648 3.036 2.96 6.847 4.21 10.728 5.402 1.291.396 2.578.811 3.854 1.255 2.812.977 5.297 2.392 6.52 4.967l5.85-8.128c-2.147-2.809-5.03-5.334-8.285-7.462-.432-.282-1.002-.461-1.274-.852-.343-.493-.446-1.153-.652-1.741.667-.119 1.532-.571 1.973-.309 11.359 6.748 16.649 13.53 16.024 27.396-.025.562-.003 1.126-.003 1.714 1.823-1.237 3.468-2.544 5.283-3.539 2.416-1.325 3.706-.706 4.458 1.917 1.41 4.922.9 9.83-.197 14.723-.125.557-.265 1.111-.379 1.585 2.159-.737 4.261-1.6 6.441-2.159 2.223-.571 3.297.378 3.351 2.679.123 5.215-1.801 9.823-4.295 14.252-.442.785-.939 1.54-1.258 2.062 2.463-.333 5.067-.89 7.689-.989 3.486-.131 4.382 1.262 3.266 4.62-1.462 4.397-4.229 7.94-7.458 11.16-.44.438-1.005.751-1.664 1.234 2.774.451 5.132.644 7.377 1.25 2.443.66 2.893 2.004 1.714 4.258-1.93 3.691-4.838 6.503-8.191 8.891-.784.558-1.585 1.091-2.476 1.702 1.751.704 3.444 1.245 5.006 2.043 2.789 1.424 3.025 2.824.978 5.127-4.628 5.207-10.812 7.526-17.315 9.204a36.88 36.88 0 0 1-4.745.875c-1.678.205-2.851.994-4.04 2.219-6.749 6.947-14.99 11.745-23.598 15.972-2.081 1.022-4.163 2.063-6.319 2.902-.648.252-1.986.122-2.246-.301-.608-.99.29-1.526 1.199-1.938 7.349-3.327 14.679-6.74 21.138-11.63 3.43-2.596 6.472-5.705 9.69-8.582 1.105-.988 1.208-1.92.447-3.337-3.521-6.555-5.923-13.451-5.47-21.048.084-1.403.257-2.854.729-4.16.308-.852 1.232-1.481 1.703-2.011-1.182-3.149-2.61-6.317-3.539-9.624-.802-2.854-.163-3.508 2.994-4.171-1.203-1.161-2.366-2.132-3.341-3.265-1.089-1.265-2.122-2.608-2.976-4.038-1.42-2.378-.769-3.823 1.908-4.625.601-.18 1.21-.332 1.708-.468-2.217-1.825-4.551-3.45-6.516-5.439-2.605-2.634-2.348-3.705 1.048-5.851zm3.64-10.456c.397-4.019-.105-7.293-1.665-10.328-.534-1.039-1.398-2.225-2.404-2.651-3.824-1.617-7.768-2.949-11.852-4.456-.406 4.285-.606 8.118 3.402 10.449 3.997 2.325 8.073 4.513 12.519 6.986zm10.455 74.408c8.483-12.127 4.808-18.6-4.845-23.557-1.904 8.58 1.216 15.996 4.845 23.557zm-1.611-91.902c-4.178 2.504-6.679 7.537-5.87 12.074.883 4.958 4.119 8.612 7.251 12.287.031.036.219-.061.417-.121 1.551-8.209 2.329-16.372-1.798-24.24zm8.481 74.439c.189-3.322.464-6.089.482-8.858.042-6.691-7.245-12.421-13.939-11.048 1.126 8.708 7.492 13.848 13.457 19.906zm.081-36.381l.808-.07c3.005-7.326 5.513-14.726 3.305-22.863-4.074.498-9.036 6.906-7.849 11.657.958 3.83 2.47 7.522 3.736 11.276zm19.166 29.909c-4.521-2.098-10.074-.993-12.969 2.443-2.753 3.267-3.827 7.282-5.191 11.569 7.439-3.228 14.091-6.8 18.16-14.012zM166.86 141.92c7.966-1.503 15.089-3.727 20.497-9.821-4.405-3.109-10.031-3.052-13.687.038-3.014 2.548-4.847 5.935-6.81 9.783zm5.901-38.969c-1.251-12.95-7.455-15.235-17.604-13.189 4.033 6.886 10.552 10.204 17.604 13.189zm3.985 10.724c6.027-2.677 13.756-11.784 14.34-16.776-3.978-1.395-9.691 1.031-11.824 5.121-1.887 3.62-2.106 7.612-2.516 11.655zm8.704-35.117c-5.001.688-8.999 4.005-9.711 8.215-.647 3.827.008 7.618 1.006 11.741 4.705-6.078 8.707-12.02 8.705-19.956zm-17.111 8.958l.613-.514c-1.87-2.654-3.495-5.531-5.669-7.907-3.023-3.304-8.268-3.522-12.122-.841 4.475 5.528 10.68 7.668 17.178 9.262zm-7.409-13.432c-3.882-7.28-13.771-11.019-18.201-6.882 2.568 3.758 12.153 6.93 18.201 6.882z" fill="#4A0105" data-color="1"></path>
      <path d="M16.83 127.457c-2.8-2.679-5.638-5.367-8.436-8.098-.499-.487-.857-1.13-1.225-1.735-2.056-3.368-1.49-4.828 2.407-5.683 1.857-.407 3.797-.436 5.766-.643-1.545-1.737-3.319-3.348-4.613-5.28-1.634-2.44-3.086-5.053-4.227-7.757-1.134-2.686-.077-4.205 2.835-4.151 2.775.052 5.54.582 8.14.883-2.275-3.658-4.455-7.796-5.184-12.513-.216-1.393-.278-2.828-.236-4.239.052-1.723 1.138-2.623 2.851-2.207 2.286.556 4.508 1.37 6.684 2.05-.342-2.358-.995-5.002-1.037-7.656-.046-2.93.26-5.908.806-8.79.432-2.283 1.806-2.843 3.896-1.769 1.965 1.01 3.754 2.363 5.339 3.383.389-3.622.633-7.583 1.285-11.475.574-3.422 2.11-6.54 4.749-8.893 3.074-2.741 6.263-5.357 9.474-7.939.767-.617 1.882-1.664 2.779-.205.842 1.37-.561 1.74-1.369 2.253-3.461 2.197-6.447 4.907-8.797 7.816l5.874 8.103c1.262-2.654 3.865-4.095 6.831-5.054.918-.297 1.824-.636 2.753-.895 4.559-1.271 8.881-2.943 12.399-6.318.991-.951 2.364-1.563 3.656-2.108.448-.189 1.18.293 1.783.469-.25.585-.36 1.318-.784 1.719-.539.51-1.343.733-2.015 1.111-3.687 2.073-6.145 4.635-5.429 9.473.536 3.623-1.619 6.385-4.591 8.38-1.643 1.103-3.349 2.111-5.067 3.187l5.339 2.218c3.221-1.464 6.431-2.935 9.655-4.376.464-.207 1.016-.438 1.481-.365.613.097 1.181.484 1.768.746-.402.539-.688 1.315-1.225 1.577-2.998 1.462-6.091 2.729-9.076 4.215-1.063.529-1.851 1.584-2.875 2.224-2.928 1.83-5.909 3.576-8.879 5.339-.367.218-.793.337-1.4.587.372.261.553.399.744.521 2.434 1.553 2.719 2.643.684 4.751-2.082 2.157-4.478 4.009-6.777 6.031.551.182 1.365.412 2.149.719 2.073.811 2.722 2.065 1.495 3.911-1.834 2.759-4.028 5.278-5.985 7.792.555.278 1.988.534 2.274 1.25.433 1.081.36 2.578-.017 3.728-.976 2.977-2.235 5.862-3.417 8.874 2.576.957 2.351 3.656 2.52 5.985.491 6.752-1.478 12.999-4.368 18.994-2.033 4.218-2.099 4.23 1.217 7.577 5.837 5.893 12.816 10.16 20.13 13.918 2.92 1.5 5.946 2.792 8.859 4.303.582.302 1.32 1.279 1.204 1.756-.297 1.226-1.362.874-2.207.485-11.341-5.218-22.461-10.763-31.174-20.093-.708-.758-2.189-.9-3.35-1.109-7.315-1.318-14.298-3.409-20.03-8.448-4.189-3.683-3.805-5.717 1.413-7.714.941-.36 1.921-.616 2.551-.815zm44.2-80.091c-2.874.937-5.671 2.121-8.588 2.744-6.526 1.395-7.984 9.254-7.006 14.282 3.641-1.953 7.235-3.764 10.713-5.775 4.898-2.831 5.965-5.39 4.881-11.251zm-26.284 91.6c3.742-7.518 6.636-15.008 4.833-23.633-10.035 5.548-13.119 11.738-4.833 23.633zm-.142-67.427l.721.327c2.12-3.477 4.615-6.787 6.269-10.473 2.257-5.031-.272-11.362-5.267-14.265-4.132 7.933-3.278 16.145-1.723 24.411zm6.766 29.798c-5.123.305-9.582 1.692-12.733 5.874-.59.783-1.04 1.887-1.054 2.85-.053 3.667.099 7.336.174 11.005l.585.073c5.488-5.728 11.886-10.845 13.028-19.802zm-17.638-39.25c-2.25 8.261.223 15.653 3.602 23.013 1.542-3.22 3.11-6.407 3.965-9.775 1.426-5.626-2.04-11.488-7.567-13.238zM8.823 114.978c2.062 5.245 11.931 12.791 18.201 13.75-1.508-3.41-2.654-6.78-4.411-9.794-2.72-4.67-8.752-6.265-13.79-3.956zm36.065-25.289c-9.882-3.042-17.373 2.731-17.541 13.21 6.921-2.888 13.403-6.256 17.541-13.21zm-12.047 51.884c-1.408-3.506-4.153-7.488-6.512-9.447-3.75-3.113-10.362-3.096-13.464.035 3.732 4.775 14.685 9.936 19.976 9.412zM8.684 96.963c2.467 7.749 8.142 12.498 14.615 16.699-.487-3.608-.947-7.201-2.108-10.551-1.67-4.824-7.578-7.623-12.507-6.148zm14.42 1.382c1.107-2.703 1.738-9.078 1.209-11.459-1.003-4.518-5.617-8.403-9.849-8.146.105 7.682 4.052 13.634 8.64 19.605zm7.761-10.912c6.885-.625 15.253-5.129 17.838-9.275-3.672-2.687-9.404-2.244-12.417 1.297-1.968 2.315-3.454 5.041-5.421 7.978zm26.683-20.271c-5.374-3.446-14.156-1.098-18.541 7.165 6.764-.89 13.27-2.101 18.541-7.165z" fill="#4A0105" data-color="1"></path>
  </g>
</svg>

