<svg xmlns="http://www.w3.org/2000/svg" width="25" height="24" viewBox="0 0 25 24" fill="#202C38">
  <path d="M12.0002 22.75C11.2102 22.75 10.4602 22.34 9.94025 21.64L8.92023 20.3C8.71023 20.02 8.43025 19.86 8.13025 19.84C7.84025 19.82 7.53027 19.96 7.28027 20.21C6.42027 21.13 5.58022 21.57 4.79022 21.55C4.25022 21.53 3.78023 21.29 3.42023 20.85C3.38023 20.8 3.34024 20.73 3.31024 20.66C2.92024 19.82 2.74023 18.68 2.74023 16.97V7.05001C2.74023 5.34001 2.92024 4.21001 3.31024 3.36001C3.34024 3.30001 3.37023 3.24001 3.42023 3.19001C3.77023 2.74001 4.24027 2.50001 4.78027 2.47001C5.58027 2.44001 6.43026 2.90001 7.27026 3.80001C7.52026 4.07001 7.82024 4.20001 8.12024 4.18001C8.42024 4.16001 8.70022 4.00001 8.91022 3.72001L9.93024 2.37001C10.4502 1.67001 11.2002 1.26001 11.9902 1.26001C12.7802 1.26001 13.5302 1.67001 14.0502 2.37001L15.0602 3.71001C15.2702 4.00001 15.5602 4.16001 15.8702 4.18001C16.1602 4.20001 16.4702 4.06001 16.7202 3.80001C17.5402 2.92001 18.3502 2.47001 19.1302 2.47001C19.6902 2.47001 20.2103 2.72001 20.5703 3.19001C20.6103 3.24001 20.6502 3.30001 20.6802 3.37001C21.0702 4.21001 21.2502 5.35001 21.2502 7.06001V16.98C21.2502 18.69 21.0702 19.82 20.6802 20.67C20.6402 20.76 20.5903 20.84 20.5203 20.91C20.2103 21.31 19.7002 21.56 19.1302 21.56C18.3502 21.56 17.5402 21.11 16.7202 20.23C16.4802 19.97 16.1502 19.83 15.8702 19.85C15.5602 19.87 15.2802 20.03 15.0602 20.32L14.0502 21.66C13.5402 22.34 12.7902 22.75 12.0002 22.75ZM8.08026 18.33C8.12026 18.33 8.17027 18.33 8.21027 18.33C8.95027 18.37 9.64023 18.76 10.1102 19.39L11.1302 20.74C11.6202 21.4 12.3602 21.4 12.8502 20.75L13.8602 19.41C14.3402 18.77 15.0403 18.39 15.7803 18.35C16.5203 18.31 17.2602 18.62 17.8002 19.2C18.5402 19.99 18.9902 20.05 19.1102 20.05C19.1902 20.05 19.2603 20.03 19.3303 19.97C19.6103 19.34 19.7302 18.39 19.7302 16.97V7.05001C19.7302 5.65001 19.6003 4.70001 19.3303 4.07001C19.2503 3.98001 19.1702 3.97001 19.1102 3.97001C18.9902 3.97001 18.5402 4.03001 17.8002 4.82001C17.2602 5.40001 16.5203 5.71001 15.7803 5.67001C15.0303 5.63001 14.3302 5.24001 13.8502 4.61001L12.8403 3.27001C12.3503 2.61001 11.6102 2.61001 11.1202 3.27001L10.1002 4.63001C9.63022 5.26001 8.94026 5.64001 8.20026 5.68001C7.46026 5.72001 6.72024 5.41001 6.18024 4.84001C5.57024 4.18001 5.10027 3.96001 4.84027 3.97001C4.78027 3.97001 4.71025 3.99001 4.63025 4.07001C4.36025 4.70001 4.23022 5.65001 4.23022 7.05001V16.97C4.23022 18.38 4.36025 19.33 4.63025 19.96C4.72025 20.04 4.78027 20.05 4.84027 20.06C5.09027 20.07 5.56023 19.85 6.17023 19.2C6.70023 18.63 7.39026 18.33 8.08026 18.33Z" />
  <path d="M16.5 11H8.5C8.09 11 7.75 10.66 7.75 10.25C7.75 9.84 8.09 9.5 8.5 9.5H16.5C16.91 9.5 17.25 9.84 17.25 10.25C17.25 10.66 16.91 11 16.5 11Z" />
  <path d="M14.5 14.5H8.5C8.09 14.5 7.75 14.16 7.75 13.75C7.75 13.34 8.09 13 8.5 13H14.5C14.91 13 15.25 13.34 15.25 13.75C15.25 14.16 14.91 14.5 14.5 14.5Z" />
</svg>