<svg width="160" height="160" viewBox="0 0 160 160" fill="none" xmlns="http://www.w3.org/2000/svg">
<path d="M77.1429 129.546C104.651 129.546 126.953 107.245 126.953 79.6382C126.953 52.0315 104.553 29.73 77.1429 29.73C49.6345 29.73 27.333 52.0315 27.333 79.6382C27.333 107.245 49.6345 129.546 77.1429 129.546Z" fill="#EAEEF9"/>
<path d="M34.0001 118.886C26.2474 129.304 46.1138 157.65 79.7897 131.485C113.466 105.319 90.2074 69.2204 70.0987 65.5864C49.9901 61.9523 27.701 26.8227 55.8047 19.3123C83.9083 11.8018 127.275 21.735 102.806 61.71C78.336 101.685 57.7428 109.922 82.9392 117.19C103.096 123.005 117.342 117.675 121.945 114.283" stroke="#D6DCE8" stroke-width="2" stroke-miterlimit="10" stroke-dasharray="4 4"/>
<g filter="url(#filter0_d_134_178547)">
<path d="M40.8393 106.129C38.1042 84.9069 41.59 78.4947 45.1525 73.5369C47.1245 75.7982 48.5254 77.6954 48.5254 77.6954C48.1881 77.2796 50.1389 73.9048 50.3209 73.6193C52.22 70.0107 53.937 66.6877 56.1216 63.2611C67.564 46.2588 86.6376 34.925 106.096 28.6562C109.785 27.5945 113.474 26.5327 117.033 25.9903C118.903 25.5764 120.826 25.3962 122.696 24.9822C123.164 24.8787 127.995 24.5452 127.891 24.0776C121.487 41.6816 118.024 51.5222 120.483 61.5238C114.847 61.545 112.12 61.4128 106.149 58.8104C112.607 69.153 115.984 68.8962 115.984 68.8962C115.984 68.8962 108.828 84.2139 75.6501 97.1979C78.6589 101.928 79.9832 102.37 79.9832 102.37C79.9832 102.37 58.5199 113.988 44.0588 107.378C40.8393 106.129 40.8393 106.129 40.8393 106.129Z" fill="url(#paint0_linear_134_178547)"/>
</g>
<path d="M28.3007 129.26C40.1895 106.518 54.6576 74.3762 83.3761 52.3239C112.277 29.9861 131.841 21.9772 131.841 21.9772L129.267 24.7541C129.267 24.7541 100.635 37.2226 75.912 64.0312C51.3713 90.5543 41.6902 113.298 34.9256 127.058C28.3007 129.26 28.3007 129.26 28.3007 129.26Z" fill="url(#paint1_linear_134_178547)"/>
<path d="M24.7638 57.4243L27.4188 56.6241C27.6111 56.5683 27.6111 56.2891 27.4188 56.2333L24.7638 55.4331C24.6955 55.4145 24.6459 55.3648 24.6273 55.2966L23.8271 52.6478C23.7712 52.4555 23.4921 52.4555 23.4363 52.6478L22.636 55.2966C22.6174 55.3648 22.5678 55.4145 22.4996 55.4331L19.8508 56.2333C19.6585 56.2891 19.6585 56.5683 19.8508 56.6241L22.5058 57.4243C22.574 57.4429 22.6236 57.4926 22.6422 57.5608L23.4425 60.2158C23.4983 60.4081 23.7774 60.4081 23.8333 60.2158L24.6335 57.5608C24.6459 57.4926 24.6955 57.4429 24.7638 57.4243Z" fill="#EAEEF9"/>
<path d="M74.0059 27.2607L76.7211 27.8238C76.9168 27.8665 77.0499 27.6211 76.9075 27.4803L74.9557 25.5106C74.9046 25.4617 74.8847 25.3944 74.9009 25.3256L75.461 22.6158C75.5036 22.4202 75.2583 22.287 75.1175 22.4294L73.1507 24.3758C73.1018 24.4269 73.0345 24.4468 72.9657 24.4306L70.2559 23.8705C70.0603 23.8278 69.9271 24.0732 70.0695 24.214L72.0213 26.1837C72.0724 26.2326 72.0924 26.2999 72.0762 26.3687L71.5131 29.0839C71.4704 29.2796 71.7158 29.4127 71.8566 29.2704L73.8263 27.3185C73.8698 27.2645 73.9371 27.2445 74.0059 27.2607Z" fill="#EAEEF9"/>
<path d="M128.6 111.444L130.675 109.604C130.826 109.473 130.709 109.22 130.511 109.25L127.765 109.637C127.695 109.649 127.629 109.624 127.584 109.57L125.746 107.502C125.615 107.35 125.362 107.468 125.392 107.666L125.776 110.406C125.788 110.475 125.764 110.541 125.71 110.587L123.641 112.424C123.49 112.556 123.607 112.809 123.805 112.779L126.55 112.392C126.62 112.38 126.686 112.404 126.732 112.458L128.572 114.533C128.703 114.684 128.956 114.567 128.926 114.369L128.539 111.623C128.522 111.556 128.546 111.49 128.6 111.444Z" fill="#EAEEF9"/>
<path d="M109.896 98.4799L112.219 97.7797C112.387 97.7309 112.387 97.4866 112.219 97.4378L109.896 96.7376C109.836 96.7214 109.793 96.6779 109.776 96.6182L109.076 94.3007C109.027 94.1324 108.783 94.1324 108.734 94.3007L108.034 96.6182C108.018 96.6779 107.974 96.7214 107.915 96.7376L105.597 97.4378C105.429 97.4866 105.429 97.7309 105.597 97.7797L107.92 98.4799C107.98 98.4962 108.023 98.5396 108.039 98.5993L108.74 100.922C108.788 101.091 109.033 101.091 109.082 100.922L109.782 98.5993C109.793 98.5396 109.836 98.4962 109.896 98.4799Z" fill="#AAB2C5"/>
<path d="M71.1326 123.322L73.4557 122.522C73.624 122.466 73.624 122.187 73.4557 122.131L71.1326 121.331C71.0729 121.313 71.0295 121.263 71.0132 121.195L70.313 118.546C70.2641 118.354 70.0199 118.354 69.971 118.546L69.2708 121.195C69.2545 121.263 69.2111 121.313 69.1514 121.331L66.8337 122.131C66.6655 122.187 66.6655 122.466 66.8337 122.522L69.1568 123.322C69.2166 123.341 69.26 123.391 69.2763 123.459L69.9765 126.114C70.0253 126.306 70.2696 126.306 70.3184 126.114L71.0186 123.459C71.0295 123.391 71.0729 123.341 71.1326 123.322Z" fill="#AAB2C5"/>
<path d="M38.2213 68.0501L39.8807 67.55C40.0009 67.5151 40.0009 67.3407 39.8807 67.3058L38.2213 66.8057C38.1787 66.794 38.1476 66.763 38.136 66.7204L37.6359 65.065C37.601 64.9448 37.4265 64.9448 37.3916 65.065L36.8915 66.7204C36.8799 66.763 36.8488 66.794 36.8062 66.8057L35.1507 67.3058C35.0305 67.3407 35.0305 67.5151 35.1507 67.55L36.8101 68.0501C36.8527 68.0617 36.8837 68.0928 36.8954 68.1354L37.3955 69.7946C37.4304 69.9148 37.6049 69.9148 37.6398 69.7946L38.1399 68.1354C38.1476 68.0928 38.1787 68.0617 38.2213 68.0501Z" fill="#AAB2C5"/>
<path d="M130.921 73.0224L132.58 72.5223C132.701 72.4874 132.701 72.313 132.58 72.2781L130.921 71.778C130.878 71.7664 130.847 71.7354 130.836 71.6927L130.336 70.0373C130.301 69.9172 130.126 69.9172 130.091 70.0373L129.591 71.6927C129.58 71.7354 129.549 71.7664 129.506 71.778L127.85 72.2781C127.73 72.313 127.73 72.4874 127.85 72.5223L129.51 73.0224C129.552 73.0341 129.583 73.0651 129.595 73.1077L130.095 74.767C130.13 74.8872 130.305 74.8872 130.339 74.767L130.84 73.1077C130.847 73.0651 130.878 73.0341 130.921 73.0224Z" fill="#EAEEF9"/>
<path d="M50.486 44.9188L52.1453 44.4187C52.2655 44.3838 52.2655 44.2094 52.1453 44.1745L50.486 43.6744C50.4433 43.6628 50.4123 43.6317 50.4007 43.5891L49.9005 41.9337C49.8656 41.8135 49.6912 41.8135 49.6563 41.9337L49.1561 43.5891C49.1445 43.6317 49.1135 43.6628 49.0708 43.6744L47.4153 44.1745C47.2951 44.2094 47.2951 44.3838 47.4153 44.4187L49.0747 44.9188C49.1174 44.9304 49.1484 44.9615 49.16 45.0041L49.6601 46.6634C49.695 46.7835 49.8695 46.7835 49.9044 46.6634L50.4045 45.0041C50.4123 44.9615 50.4433 44.9304 50.486 44.9188Z" fill="#AAB2C5"/>
<path d="M25.7745 100.642L27.4339 100.141C27.5541 100.107 27.5541 99.9321 27.4339 99.8972L25.7745 99.3971C25.7319 99.3855 25.7009 99.3544 25.6892 99.3118L25.1891 97.6564C25.1542 97.5362 24.9797 97.5362 24.9448 97.6564L24.4447 99.3118C24.4331 99.3544 24.4021 99.3855 24.3594 99.3971L22.7039 99.8972C22.5837 99.9321 22.5837 100.107 22.7039 100.141L24.3633 100.642C24.4059 100.653 24.437 100.684 24.4486 100.727L24.9487 102.386C24.9836 102.506 25.1581 102.506 25.193 102.386L25.6931 100.727C25.7009 100.684 25.7319 100.653 25.7745 100.642Z" fill="#EAEEF9"/>
<defs>
<filter id="filter0_d_134_178547" x="17.8584" y="13.0776" width="132.035" height="129.334" filterUnits="userSpaceOnUse" color-interpolation-filters="sRGB">
<feFlood flood-opacity="0" result="BackgroundImageFix"/>
<feColorMatrix in="SourceAlpha" type="matrix" values="0 0 0 0 0 0 0 0 0 0 0 0 0 0 0 0 0 0 127 0" result="hardAlpha"/>
<feOffset dy="11"/>
<feGaussianBlur stdDeviation="11"/>
<feColorMatrix type="matrix" values="0 0 0 0 0.397708 0 0 0 0 0.47749 0 0 0 0 0.575 0 0 0 0.27 0"/>
<feBlend mode="normal" in2="BackgroundImageFix" result="effect1_dropShadow_134_178547"/>
<feBlend mode="normal" in="SourceGraphic" in2="effect1_dropShadow_134_178547" result="shape"/>
</filter>
<linearGradient id="paint0_linear_134_178547" x1="77.2395" y1="33.0628" x2="92.6447" y2="102.666" gradientUnits="userSpaceOnUse">
<stop stop-color="#FDFEFF"/>
<stop offset="0.9964" stop-color="#ECF0F5"/>
</linearGradient>
<linearGradient id="paint1_linear_134_178547" x1="19.3467" y1="89.0678" x2="140.765" y2="62.1942" gradientUnits="userSpaceOnUse">
<stop stop-color="#B0BACC"/>
<stop offset="1" stop-color="#969EAE"/>
</linearGradient>
</defs>
</svg>
